<svg xmlns="http://www.w3.org/2000/svg" width="20" height="20" fill="none"><path fill="#7065F0" d="M17.501 8.333H5.835v-2.5c0-.919.747-1.666 1.666-1.666.92 0 1.667.747 1.667 1.666h1.667A3.337 3.337 0 0 0 7.5 2.5a3.337 3.337 0 0 0-3.333 3.333v2.5H2.501a.833.833 0 0 0-.833.834v1.666a5.006 5.006 0 0 0 3.333 4.709v2.791h1.667v-2.5h6.667v2.5H15v-2.791a5.006 5.006 0 0 0 3.334-4.709V9.167a.834.834 0 0 0-.834-.834Zm-.833 2.5a3.337 3.337 0 0 1-3.333 3.334H6.668a3.337 3.337 0 0 1-3.333-3.334V10h13.333v.833Z"/></svg>