<svg xmlns="http://www.w3.org/2000/svg" width="20" height="20" fill="none"><path fill="#7065F0" d="M17.501 8.983V6.666c0-1.375-1.125-2.5-2.5-2.5h-3.333c-.642 0-1.225.25-1.667.65a2.478 2.478 0 0 0-1.666-.65H5a2.507 2.507 0 0 0-2.5 2.5v2.317a2.488 2.488 0 0 0-.833 1.85v5h1.667v-1.667h13.333v1.667h1.667v-5c0-.733-.325-1.392-.834-1.85Zm-5.833-3.15h3.333c.459 0 .834.375.834.833v1.667h-5V6.666c0-.458.375-.833.833-.833Zm-7.5.833c0-.458.375-.833.833-.833h3.334c.458 0 .833.375.833.833v1.667h-5V6.666ZM3.335 12.5v-1.667c0-.458.375-.833.833-.833h11.667c.458 0 .833.375.833.833V12.5H3.335Z"/></svg>