<svg xmlns="http://www.w3.org/2000/svg" width="64" height="64" fill="none"><circle cx="32" cy="32" r="31.5" fill="#fff" stroke="#E0DEF7"/><circle cx="32" cy="32" r="28" fill="#E0DEF7"/><path fill="#7065F0" d="M40 51a4 4 0 0 1 1.6-3.2l8-6a4 4 0 0 1 4.8 0l8 6A4 4 0 0 1 64 51v13H40V51Z"/><path fill="#fff" d="M50.668 55.333c-.273 0-.5.227-.5.5v1c0 .274.227.5.5.5s.5-.226.5-.5v-1c0-.273-.227-.5-.5-.5Z"/><path fill="#fff" d="M58.665 59.167H58v-7.514c0-.413-.187-.8-.514-1.053l-4.666-3.627c-.48-.38-1.16-.38-1.64 0L46.512 50.6c-.327.253-.513.64-.513 1.047l-.034 7.52h-.633a.5.5 0 1 0 0 1h13.333a.5.5 0 1 0 0-1ZM51 49.5h2c.273 0 .5.227.5.5s-.227.5-.5.5h-2a.504.504 0 0 1-.5-.5c0-.273.226-.5.5-.5Zm4.333 9.667h-6.667v-5.834c0-.553.447-1 1-1h4.667c.553 0 1 .447 1 1v5.834Z"/><g clip-path="url(#a)"><g filter="url(#b)"><path stroke="#fff" stroke-linecap="round" stroke-linejoin="round" stroke-width="2" d="M21.332 26.667V24a2.667 2.667 0 0 1 2.667-2.667h2.666" shape-rendering="crispEdges"/></g><g filter="url(#c)"><path stroke="#fff" stroke-linecap="round" stroke-linejoin="round" stroke-width="2" d="M21.332 37.333V40a2.667 2.667 0 0 0 2.667 2.667h2.666" shape-rendering="crispEdges"/></g><path stroke="#fff" stroke-linecap="round" stroke-linejoin="round" stroke-width="2" d="M37.332 21.333h2.667A2.667 2.667 0 0 1 42.665 24v2.667M37.332 42.667h2.667A2.667 2.667 0 0 0 42.665 40v-2.667"/><path fill="#fff" stroke="#fff" stroke-linecap="round" stroke-linejoin="round" stroke-width="2" d="m32.001 40-4.666-6.667a5.334 5.334 0 1 1 9.333 0L32.001 40Z"/><path stroke="#7065F0" stroke-linecap="round" stroke-linejoin="round" stroke-width="6" d="M32 30.667v.013"/></g><defs><filter id="b" width="15.332" height="15.333" x="18.332" y="18.333" color-interpolation-filters="sRGB" filterUnits="userSpaceOnUse"><feFlood flood-opacity="0" result="BackgroundImageFix"/><feColorMatrix in="SourceAlpha" result="hardAlpha" values="0 0 0 0 0 0 0 0 0 0 0 0 0 0 0 0 0 0 127 0"/><feOffset dx="2" dy="2"/><feGaussianBlur stdDeviation="2"/><feComposite in2="hardAlpha" operator="out"/><feColorMatrix values="0 0 0 0 0.439216 0 0 0 0 0.396078 0 0 0 0 0.941176 0 0 0 0.1 0"/><feBlend in2="BackgroundImageFix" result="effect1_dropShadow_334_914"/><feBlend in="SourceGraphic" in2="effect1_dropShadow_334_914" result="shape"/></filter><filter id="c" width="15.332" height="15.333" x="18.332" y="34.333" color-interpolation-filters="sRGB" filterUnits="userSpaceOnUse"><feFlood flood-opacity="0" result="BackgroundImageFix"/><feColorMatrix in="SourceAlpha" result="hardAlpha" values="0 0 0 0 0 0 0 0 0 0 0 0 0 0 0 0 0 0 127 0"/><feOffset dx="2" dy="2"/><feGaussianBlur stdDeviation="2"/><feComposite in2="hardAlpha" operator="out"/><feColorMatrix values="0 0 0 0 0.439216 0 0 0 0 0.396078 0 0 0 0 0.941176 0 0 0 0.1 0"/><feBlend in2="BackgroundImageFix" result="effect1_dropShadow_334_914"/><feBlend in="SourceGraphic" in2="effect1_dropShadow_334_914" result="shape"/></filter><clipPath id="a"><path fill="#fff" d="M16 16h32v32H16z"/></clipPath></defs></svg>