<svg xmlns="http://www.w3.org/2000/svg" width="32" height="32" fill="none"><circle cx="16" cy="16" r="16" fill="#000929"/><path fill="#fff" d="M12.64 11.032c.746 0 1.364.245 1.855.736.49.49.736 1.12.736 1.888 0 .384-.053.757-.16 1.12-.085.363-.266.907-.544 1.632l-1.664 4.544h-2.592l1.28-4.928a2.258 2.258 0 0 1-1.12-.864c-.256-.427-.384-.928-.384-1.504 0-.768.245-1.397.736-1.888.49-.49 1.11-.736 1.856-.736Zm6.783 0c.747 0 1.366.245 1.856.736.49.49.736 1.12.736 1.888 0 .384-.053.757-.16 1.12-.085.363-.267.907-.544 1.632l-1.664 4.544h-2.592l1.28-4.928a2.258 2.258 0 0 1-1.12-.864c-.256-.427-.384-.928-.384-1.504 0-.768.245-1.397.736-1.888.49-.49 1.11-.736 1.856-.736Z"/></svg>