<svg xmlns="http://www.w3.org/2000/svg" width="64" height="64" fill="none"><circle cx="32" cy="32" r="31.5" fill="#fff" stroke="#E0DEF7"/><circle cx="32" cy="32" r="28" fill="#E0DEF7"/><path fill="#fff" d="M39.373 26.36a.98.98 0 0 0-.28 0 3.832 3.832 0 0 1-3.706-3.84c0-2.12 1.72-3.853 3.853-3.853 2.12 0 3.853 1.72 3.853 3.853a3.852 3.852 0 0 1-3.72 3.84ZM43.72 35.6c-1.494 1-3.587 1.373-5.52 1.12a8.708 8.708 0 0 0 .786-3.587c0-1.333-.293-2.6-.853-3.706 1.973-.267 4.066.106 5.573 1.106 2.107 1.387 2.107 3.667.013 5.067ZM24.586 26.36a.98.98 0 0 1 .28 0 3.832 3.832 0 0 0 3.706-3.84 3.847 3.847 0 0 0-3.853-3.853c-2.12 0-3.84 1.72-3.84 3.853 0 2.08 1.64 3.773 3.707 3.84ZM24.733 33.133c0 1.294.28 2.52.787 3.627-1.88.2-3.84-.2-5.28-1.147-2.106-1.4-2.106-3.68 0-5.08 1.427-.96 3.44-1.346 5.334-1.133a8.477 8.477 0 0 0-.84 3.733ZM32.158 37.16a1.51 1.51 0 0 0-.346 0 4.567 4.567 0 0 1-4.414-4.573 4.598 4.598 0 0 1 4.6-4.587 4.586 4.586 0 0 1 4.587 4.587 4.578 4.578 0 0 1-4.427 4.573ZM27.826 39.92c-2.013 1.347-2.013 3.56 0 4.893 2.294 1.534 6.054 1.534 8.347 0 2.013-1.346 2.013-3.56 0-4.893-2.28-1.533-6.04-1.533-8.347 0Z"/><path fill="#7065F0" d="M40 48a8 8 0 0 1 8-8h8a8 8 0 0 1 8 8v8a8 8 0 0 1-8 8h-8a8 8 0 0 1-8-8v-8Z"/><path fill="#fff" d="M57.194 53.953a5.05 5.05 0 0 1-5.067 1.247l-3.14 3.133c-.227.234-.673.374-.993.327l-1.454-.2c-.48-.067-.926-.52-1-1l-.2-1.453c-.046-.32.107-.767.327-.994L48.8 51.88a5.046 5.046 0 0 1 8.387-5.067 5.052 5.052 0 0 1 .007 7.14Z"/><path stroke="#7065F0" stroke-linecap="round" stroke-linejoin="round" stroke-miterlimit="10" stroke-width="2" d="m48.594 55.66 1.533 1.533"/><path fill="#7065F0" stroke="#7065F0" stroke-linecap="round" stroke-linejoin="round" stroke-width="2" d="M53.668 51.333a1 1 0 1 0 0-2 1 1 0 0 0 0 2Z"/></svg>