<svg xmlns="http://www.w3.org/2000/svg" width="64" height="64" fill="none"><circle cx="32" cy="32" r="31.5" fill="#fff" stroke="#E0DEF7"/><circle cx="32" cy="32" r="28" fill="#E0DEF7"/><rect width="24" height="24" x="40" y="40" fill="#7065F0" rx="12"/><path fill="#fff" d="M51.501 49.387v1.906l-.673-.233c-.34-.12-.547-.233-.547-.813 0-.474.354-.86.787-.86h.433ZM53.72 53.754c0 .473-.353.86-.787.86H52.5v-1.907l.673.233c.34.12.547.233.547.814Z"/><path fill="#fff" d="M54.792 45.333h-5.587c-2.426 0-3.873 1.447-3.873 3.874v5.586c0 2.427 1.447 3.874 3.873 3.874h5.587c2.427 0 3.873-1.447 3.873-3.874v-5.586c0-2.427-1.446-3.874-3.873-3.874ZM53.505 52c.52.18 1.214.56 1.214 1.753 0 1.027-.8 1.86-1.787 1.86h-.433V56c0 .273-.227.5-.5.5a.504.504 0 0 1-.5-.5v-.387h-.24c-1.094 0-1.98-.926-1.98-2.06a.5.5 0 1 1 1 0c0 .587.44 1.06.98 1.06h.24v-2.26L50.492 52c-.52-.18-1.213-.56-1.213-1.753 0-1.027.8-1.86 1.786-1.86h.434V48c0-.273.226-.5.5-.5.273 0 .5.227.5.5v.387h.24c1.093 0 1.98.926 1.98 2.06a.5.5 0 1 1-1 0c0-.587-.44-1.06-.98-1.06h-.24v2.26l1.006.353Z"/><path fill="#fff" stroke="#fff" stroke-linecap="round" stroke-linejoin="round" stroke-width="2" d="m32.001 44 13.334-9.333h-5.32L40 20h-16v14.667h-5.333L32.001 44Z"/><g filter="url(#a)"><path stroke="#7065F0" stroke-linecap="round" stroke-linejoin="round" stroke-width="2" d="m28 34.667 8-8"/></g><g filter="url(#b)"><path fill="#7065F0" d="M28.667 28a.667.667 0 1 0 0-1.333.667.667 0 0 0 0 1.333Z"/><path stroke="#7065F0" stroke-linecap="round" stroke-linejoin="round" stroke-width="2" d="M28.667 28a.667.667 0 1 0 0-1.333.667.667 0 0 0 0 1.333Z"/></g><path fill="#7065F0" stroke="#7065F0" stroke-linecap="round" stroke-linejoin="round" stroke-width="2" d="M35.335 34.667a.667.667 0 1 0 0-1.334.667.667 0 0 0 0 1.334Z"/><defs><filter id="a" width="18" height="18" x="25" y="23.667" color-interpolation-filters="sRGB" filterUnits="userSpaceOnUse"><feFlood flood-opacity="0" result="BackgroundImageFix"/><feColorMatrix in="SourceAlpha" result="hardAlpha" values="0 0 0 0 0 0 0 0 0 0 0 0 0 0 0 0 0 0 127 0"/><feOffset dx="2" dy="2"/><feGaussianBlur stdDeviation="2"/><feComposite in2="hardAlpha" operator="out"/><feColorMatrix values="0 0 0 0 0.439216 0 0 0 0 0.396078 0 0 0 0 0.941176 0 0 0 0.1 0"/><feBlend in2="BackgroundImageFix" result="effect1_dropShadow_334_903"/><feBlend in="SourceGraphic" in2="effect1_dropShadow_334_903" result="shape"/></filter><filter id="b" width="11.332" height="11.333" x="25" y="23.667" color-interpolation-filters="sRGB" filterUnits="userSpaceOnUse"><feFlood flood-opacity="0" result="BackgroundImageFix"/><feColorMatrix in="SourceAlpha" result="hardAlpha" values="0 0 0 0 0 0 0 0 0 0 0 0 0 0 0 0 0 0 127 0"/><feOffset dx="2" dy="2"/><feGaussianBlur stdDeviation="2"/><feComposite in2="hardAlpha" operator="out"/><feColorMatrix values="0 0 0 0 0.439216 0 0 0 0 0.396078 0 0 0 0 0.941176 0 0 0 0.1 0"/><feBlend in2="BackgroundImageFix" result="effect1_dropShadow_334_903"/><feBlend in="SourceGraphic" in2="effect1_dropShadow_334_903" result="shape"/></filter></defs></svg>