<svg width="65" height="16" viewBox="0 0 65 16" fill="none" xmlns="http://www.w3.org/2000/svg">
<path d="M16.864 13H22.804V11.56H18.496V9.232H22.564V7.792H18.496V5.5H22.804V4.06H16.864V13ZM26.3527 13.144C26.8487 13.144 27.2807 13.06 27.6487 12.892C28.0167 12.724 28.3047 12.492 28.5127 12.196C28.7207 11.892 28.8247 11.544 28.8247 11.152C28.8247 10.696 28.6807 10.304 28.3927 9.976C28.1047 9.648 27.6887 9.408 27.1447 9.256L26.1007 8.944C25.8767 8.88 25.6927 8.796 25.5487 8.692C25.4047 8.588 25.3327 8.444 25.3327 8.26C25.3327 8.068 25.4087 7.912 25.5607 7.792C25.7127 7.672 25.9207 7.612 26.1847 7.612C26.5127 7.612 26.8087 7.7 27.0727 7.876C27.3447 8.052 27.5327 8.288 27.6367 8.584L28.8367 8.02C28.6367 7.492 28.3007 7.08 27.8287 6.784C27.3567 6.48 26.8127 6.328 26.1967 6.328C25.7247 6.328 25.3047 6.412 24.9367 6.58C24.5767 6.748 24.2927 6.984 24.0847 7.288C23.8847 7.584 23.7847 7.932 23.7847 8.332C23.7847 8.78 23.9247 9.168 24.2047 9.496C24.4927 9.824 24.9127 10.068 25.4647 10.228L26.5327 10.528C26.7407 10.584 26.9167 10.668 27.0607 10.78C27.2127 10.884 27.2887 11.028 27.2887 11.212C27.2887 11.428 27.2007 11.6 27.0247 11.728C26.8567 11.848 26.6327 11.908 26.3527 11.908C25.9847 11.908 25.6527 11.804 25.3567 11.596C25.0607 11.388 24.8247 11.1 24.6487 10.732L23.4727 11.296C23.6647 11.856 24.0167 12.304 24.5287 12.64C25.0487 12.976 25.6567 13.144 26.3527 13.144ZM33.0088 13.072C33.2728 13.072 33.5328 13.052 33.7888 13.012V11.656C33.6368 11.68 33.4968 11.692 33.3688 11.692C32.9848 11.692 32.7048 11.604 32.5288 11.428C32.3528 11.252 32.2648 11 32.2648 10.672V7.876H33.7648V6.472H32.2648V4.984H30.6928V5.488C30.6928 5.808 30.6048 6.052 30.4288 6.22C30.2528 6.388 30.0048 6.472 29.6848 6.472H29.5648V7.876H30.6928V10.756C30.6928 11.484 30.8928 12.052 31.2928 12.46C31.7008 12.868 32.2728 13.072 33.0088 13.072ZM36.9347 13.144C37.7827 13.144 38.4627 12.864 38.9747 12.304V13H40.4627V8.656C40.4627 8.2 40.3467 7.796 40.1147 7.444C39.8827 7.092 39.5627 6.82 39.1547 6.628C38.7547 6.428 38.2867 6.328 37.7507 6.328C37.0947 6.328 36.5107 6.484 35.9987 6.796C35.4867 7.108 35.1347 7.52 34.9427 8.032L36.2267 8.656C36.3467 8.36 36.5347 8.124 36.7907 7.948C37.0467 7.764 37.3467 7.672 37.6907 7.672C38.0507 7.672 38.3387 7.768 38.5547 7.96C38.7787 8.144 38.8907 8.376 38.8907 8.656V8.872L36.9467 9.184C36.1787 9.312 35.6107 9.556 35.2427 9.916C34.8747 10.276 34.6907 10.728 34.6907 11.272C34.6907 11.848 34.8947 12.304 35.3027 12.64C35.7107 12.976 36.2547 13.144 36.9347 13.144ZM36.3227 11.212C36.3227 10.756 36.6307 10.468 37.2467 10.348L38.8907 10.072V10.336C38.8907 10.784 38.7347 11.164 38.4227 11.476C38.1187 11.788 37.7187 11.944 37.2227 11.944C36.9587 11.944 36.7427 11.88 36.5747 11.752C36.4067 11.616 36.3227 11.436 36.3227 11.212ZM44.7744 13.072C45.0384 13.072 45.2984 13.052 45.5544 13.012V11.656C45.4024 11.68 45.2624 11.692 45.1344 11.692C44.7504 11.692 44.4704 11.604 44.2944 11.428C44.1184 11.252 44.0304 11 44.0304 10.672V7.876H45.5304V6.472H44.0304V4.984H42.4584V5.488C42.4584 5.808 42.3704 6.052 42.1944 6.22C42.0184 6.388 41.7704 6.472 41.4504 6.472H41.3304V7.876H42.4584V10.756C42.4584 11.484 42.6584 12.052 43.0584 12.46C43.4664 12.868 44.0384 13.072 44.7744 13.072ZM49.7928 13.144C50.4568 13.144 51.0368 12.996 51.5328 12.7C52.0368 12.396 52.3888 12.012 52.5888 11.548L51.3168 10.924C51.1728 11.172 50.9728 11.376 50.7168 11.536C50.4688 11.688 50.1648 11.764 49.8048 11.764C49.3328 11.764 48.9368 11.62 48.6168 11.332C48.2968 11.044 48.1128 10.66 48.0648 10.18H52.7688C52.8008 10.092 52.8208 9.992 52.8288 9.88C52.8448 9.76 52.8528 9.64 52.8528 9.52C52.8528 8.936 52.7288 8.404 52.4808 7.924C52.2328 7.444 51.8728 7.06 51.4008 6.772C50.9288 6.476 50.3528 6.328 49.6728 6.328C49.0648 6.328 48.5128 6.476 48.0168 6.772C47.5288 7.068 47.1408 7.472 46.8528 7.984C46.5728 8.488 46.4328 9.068 46.4328 9.724C46.4328 10.356 46.5728 10.932 46.8528 11.452C47.1328 11.972 47.5248 12.384 48.0288 12.688C48.5328 12.992 49.1208 13.144 49.7928 13.144ZM49.6728 7.624C50.0888 7.624 50.4328 7.752 50.7048 8.008C50.9848 8.256 51.1408 8.58 51.1728 8.98H48.1008C48.1888 8.548 48.3728 8.216 48.6528 7.984C48.9408 7.744 49.2808 7.624 49.6728 7.624ZM54.0445 13H55.6165V9.364C55.6165 8.868 55.7525 8.484 56.0245 8.212C56.3045 7.932 56.6645 7.792 57.1045 7.792H57.6685V6.4H57.2845C56.8845 6.4 56.5325 6.472 56.2285 6.616C55.9245 6.76 55.6885 7.02 55.5205 7.396V6.472H54.0445V13ZM59.3248 15.652C59.9408 15.652 60.4528 15.476 60.8608 15.124C61.2768 14.78 61.6088 14.292 61.8568 13.66L64.7008 6.472H62.9968L61.3168 10.972L59.6248 6.472H57.9328L60.5128 13L60.3688 13.348C60.2408 13.62 60.0928 13.84 59.9248 14.008C59.7648 14.176 59.5048 14.26 59.1448 14.26C59.0168 14.26 58.8808 14.248 58.7368 14.224C58.5928 14.208 58.4648 14.184 58.3528 14.152V15.472C58.4888 15.536 58.6408 15.58 58.8088 15.604C58.9768 15.636 59.1488 15.652 59.3248 15.652Z" fill="#000929"/>
<g clip-path="url(#clip0_334_1217)">
<path d="M9.50063 6.35488L6.83413 4.28088C6.60012 4.09884 6.3121 4 6.01562 4C5.71915 4 5.43113 4.09884 5.19712 4.28088L2.53013 6.35488C2.36985 6.47953 2.24017 6.63915 2.151 6.82156C2.06183 7.00397 2.01553 7.20435 2.01563 7.40738V11.0074C2.01563 11.2726 2.12098 11.527 2.30852 11.7145C2.49605 11.902 2.75041 12.0074 3.01563 12.0074H9.01563C9.28084 12.0074 9.5352 11.902 9.72273 11.7145C9.91027 11.527 10.0156 11.2726 10.0156 11.0074V7.40738C10.0156 6.99588 9.82562 6.60738 9.50063 6.35488Z" fill="#7065F0" stroke="#7065F0" stroke-width="3" stroke-linecap="round" stroke-linejoin="round"/>
<path d="M8 9.5C6.895 10.1665 5.104 10.1665 4 9.5" stroke="#F9FAFB" stroke-width="2" stroke-linecap="round" stroke-linejoin="round"/>
</g>
<defs>
<clipPath id="clip0_334_1217">
<rect width="12" height="12" fill="white" transform="translate(0 2)"/>
</clipPath>
</defs>
</svg>
