<svg xmlns="http://www.w3.org/2000/svg" width="360" height="254" fill="none"><path fill="#2516DF" d="M311.921 399.92 500 291.332 188.079 111.246 0 219.833 311.921 399.92Z"/><path fill="#A9A2F6" d="M492.964 291.333 188.082 115.31 7.039 219.832l304.884 176.026 181.041-104.525Z"/><path fill="#F0EFFB" d="m253.431 360.534 56.267-32.487 58.486 33.766-56.27 32.487-58.483-33.766Zm-64.709-102.331 51.894 29.96-56.267 32.486-51.895-29.961 56.268-32.485ZM362.663 217.7l-54.618 31.532-51.893-29.96 54.617-31.533 51.894 29.961Zm14.465 71.418 54.616-31.534 58.484 33.766-54.618 31.533-58.482-33.765Zm-4.131 2.384 58.485 33.765-59.171 34.162-58.483-33.766 59.169-34.161Zm-60.823-39.885 54.616-31.534 60.824 35.117-54.617 31.533-60.823-35.116Zm-67.428 34.163-51.895-29.962 59.172-34.162 51.893 29.961-59.17 34.163Zm60.824 39.883-56.269 32.487-60.823-35.116 56.268-32.488 60.824 35.117Zm-56.695-37.5 59.17-34.162 60.824 35.117-59.171 34.161-60.823-35.116Zm117.941-72.836-.012-.02-.013.008-56.022-32.346-186.574 107.719 187.719 108.38L498.488 291.35l-131.672-76.023Z"/><path fill="#C7784C" d="M52.168 159.634v3.73c.117 1.032.892 2.111 2.37 2.955 2.018 1.173 4.762 1.619 7.085 1.267.984-.14 1.9-.422 2.65-.868l42.085-24.303c1.103-.61 1.619-1.454 1.666-2.323l.023-3.636-2.674.212c-2.862-1.525-7.014-1.666-9.431-.259l-35.658 20.575-5.887 3.401-.117-.751h-2.112Z"/><path fill="#DFCFB5" d="M52.168 159.634v3.73c.117 1.032.892 2.111 2.37 2.955 2.018 1.173 4.762 1.619 7.085 1.267v-10.602h-1.339l-5.887 3.401-.117-.751h-2.112Z"/><path fill="#fff" d="m64.272 163.207 42.094-24.303c2.495-1.441 2.181-3.956-.699-5.619v-.001c-2.881-1.663-7.237-1.842-9.732-.402L53.84 157.185c-2.495 1.44-2.181 3.956.7 5.619 2.88 1.662 7.237 1.843 9.732.403Z"/><path fill="#E8E6F9" d="m253.837 154.031-.013-.023-.014.007-65.12-37.598L8.727 220.04 234.92 350.583l179.962-103.622-161.045-92.93Z"/><path fill="url(#a)" d="m414.882 213.544-49.139-28.371v-32.536l5.212 1.888-5.215-2.991v-3.25l-34.863-17.075-.14.246-68.962-39.558-3.154-1.142V88.49l-38.306-59.91-14.183 8.194-31.448 8.393L48.55 118.04l3.412-.911-.1.058v22.582L8.728 164.672V103.63L188.699 0l226.183 130.536v83.008Z"/><path fill="url(#b)" d="m414.882 241.768-49.139-28.371v-28.646l49.139 28.371v28.646ZM8.727 214.371V164.25l43.136-24.904v50.57L8.727 214.371Z"/><path fill="#A8A2F6" d="m130.435 162.55-78.572-45.363 126.133-72.872 78.572 45.364-126.133 72.871Z"/><path fill="#7065F0" d="M130.438 256.612v-94.061L256.57 89.679v94.062l-126.132 72.871Z"/><path fill="#F7F7FD" d="m165.389 232.075-27.53 15.895v-62.507l27.53-15.894v62.506Z"/><path fill="#A8A2F6" d="M51.863 211.249v-94.062l78.572 45.364v94.061l-78.572-45.363Z"/><path fill="#F7F7FD" d="M62.508 139.579v60.477l10.519 6.06v-60.478l-10.52-6.059ZM77.227 148.069v60.477l10.517 6.06v-60.478l-10.517-6.059ZM91.938 156.559v60.478l10.519 6.059v-60.477l-10.52-6.06ZM106.656 165.049v60.477l10.518 6.06v-60.477l-10.518-6.06Z"/><path fill="#7065F0" d="m280.903 201.261-109.18-62.627 84.84-48.96 109.18 62.627-84.84 48.96ZM280.902 295.399v-94.137l84.841-48.959v94.136l-84.841 48.96Z"/><path fill="#A8A2F6" d="M171.723 232.772v-94.136l109.18 62.626v94.137l-109.18-62.627Z"/><path fill="#F7F7FD" d="m273.377 284.434-94.127-54.343v-62.219l94.127 54.345v62.217Z"/><path fill="#5245ED" d="m151.492 162.145-4.297-4.872 19.555-11.298 4.974 2.853v2.11l-20.232 11.207Z"/><path fill="#013BA1" d="M171.723 150.938v-2.11l.008.006.002 2.099-.01.005Z"/><path fill="#5598E9" d="m48.55 118.04 45.631-12.179 126.134-72.872-45.63 12.178L48.551 118.04Z"/><path fill="#3F461D" d="M132.486 165.77 94.18 105.86l126.134-72.872 38.305 59.909-126.133 72.873Z"/><path fill="#7065F0" d="M258.621 88.489v4.408L132.488 165.77v-4.41l126.133-72.871Z"/><path fill="#5245ED" d="m105.442 138.383-14.336-20.32-27.236 6.056-12.007-6.932 2.223-.624 40.096-10.701 19.293 30.172-8.033 2.349Z"/><path fill="#5245ED" d="m51.867 126.787-.004-9.6 12.007 6.931-12.003 2.669Z"/><path fill="#073CAE" d="m54.086 116.562 39.92-11.213.175.275v.238l-40.095 10.7Z"/><path fill="#CBC7FA" d="m48.55 113.63 45.631-12.177L220.315 28.58l-45.63 12.178L48.551 113.63Z"/><path fill="#A8A2F6" d="M132.486 161.361 94.18 101.453 220.314 28.58l38.305 59.91-126.133 72.871Z"/><path fill="#5245ED" d="m158.158 128.63-21.619-7.726.002-14.195 17.98 6.638 8.144 9.199-4.507 6.084Z"/><path fill="#A8A2F6" d="m136.539 105.61-7.816-4.512 7.768-4.485 7.816 4.513-7.768 4.484Z"/><path fill="#CBC7FA" d="m136.54 105.568-8.395-4.849 8.343-4.817 8.397 4.848-8.345 4.818Z"/><path fill="#2516DF" d="m136.543 107.026 8.344-4.818v-1.458l-8.344 4.818v1.458Z"/><path fill="#A8A2F6" d="m128.145 102.178 8.395 4.848v-1.458l-8.395-4.849v1.459Z"/><path fill="#2516DF" d="m142.023 101.116-5.494 3.18-.018-.019-5.495-3.178 5.477-3.161.018.018 5.512 3.16Z"/><path fill="#A8A2F6" d="m142.024 101.116-5.495 3.18-.017-.019v-6.32l5.512 3.159Z"/><path fill="#2516DF" d="m136.539 120.903 7.768-4.484v-15.293l-7.768 4.484v15.293Z"/><path fill="#A8A2F6" d="m128.727 108.761 7.815 12.142V105.61l-7.815-4.513v7.664ZM136.545 97.543l-1.104-.638 1.096-.632 1.104.636-1.096.634Z"/><path fill="#2516DF" d="m136.543 105.197 1.096-.633v-7.655l-1.096.634v7.654Z"/><path fill="#A8A2F6" d="m135.441 104.56 1.104.637v-7.654l-1.104-.638v7.655Z"/><path fill="#096EA8" d="m136.545 97.543-.744-.43.731-.42.751.424-.738.426Z"/><path fill="#093B7D" d="m136.551 99.892-.008-.005v-2.343l.738-.427.355.2v1.95l-1.085.625Z"/><path fill="#096EA8" d="m136.545 99.887-1.1-.64v-1.93l.355-.203.745.43v2.343Z"/><path fill="#A8A2F6" d="m143.213 93.687-1.104-.637 1.096-.633 1.105.636-1.097.634Z"/><path fill="#2516DF" d="m143.215 101.341 1.097-.633v-7.655l-1.097.634v7.654Z"/><path fill="#A8A2F6" d="m142.109 100.704 1.104.637v-7.654l-1.104-.637v7.654Z"/><path fill="#096EA8" d="m143.215 93.687-.75-.432.48-.281.745.438-.475.275Z"/><path fill="#093B7D" d="M143.215 96.041v-2.353l.476-.275.621.365v1.63l-1.097.633Z"/><path fill="#096EA8" d="m143.211 96.043-1.09-.507v-2.08l.344-.2.75.431v2.353l-.004.002Z"/><path fill="#A8A2F6" d="m129.828 93.668-1.105-.637 1.097-.634 1.104.638-1.096.633Z"/><path fill="#2516DF" d="m129.828 101.323 1.096-.634v-7.654l-1.096.633v7.655Z"/><path fill="#A8A2F6" d="m128.723 100.685 1.105.638v-7.655l-1.105-.637v7.654Z"/><path fill="#096EA8" d="m129.827 93.668-.491-.283.74-.432.486.29-.735.425Z"/><path fill="#093B7D" d="M129.828 96.019v-2.352l.736-.424.357.214v1.951l-1.093.61Z"/><path fill="#096EA8" d="m129.825 96.02-1.095-.634v-1.648l.608-.353.491.282v2.351l-.004.001Z"/><path fill="#fff" d="m136.544 97.532-9.235-5.333 9.177-5.298 9.236 5.331-9.178 5.3Z"/><path fill="#A8A2F6" d="m136.547 99.136 9.177-5.3v-1.603l-9.177 5.3v1.603Z"/><path fill="#CBC7FA" d="m127.309 93.804 9.235 5.332v-1.603l-9.235-5.333v1.604Z"/><path fill="#5598E9" d="M275.867 208.567 166.688 145.94l34.152-31.786 109.18 62.627-34.153 31.786Z"/><path fill="#DDB79B" d="m261.774 91.898-40.079-14.511 109.181 62.627 40.078 14.511-109.18-62.627Z"/><path fill="#433E44" d="m330.877 140.015-20.857 36.766-109.18-62.627 20.856-36.767 109.181 62.628Z"/><path fill="#02288E" d="m280.906 213.543-.004-9.661v9.57l.004-.003v.094Z"/><path fill="#5245ED" d="m280.908 213.543-109.174-62.61v-2.098l104.135 59.733 5.035-4.686v9.659"/><path fill="#02288E" d="M171.734 141.244v-2.557l.176-.101 1.659.952-1.835 1.706Z"/><path fill="#0852BE" d="M171.734 138.687v-.202l.176.101-.176.101Z"/><path fill="#073CAE" d="m275.869 208.567-104.135-59.732v-7.591l1.835-1.706 107.339 61.557-.004 2.787-5.035 4.685Z"/><path fill="#5245ED" d="m288.312 196.986 21.708-20.205 20.857-36.766-1.858-1.067 1.858 1.067 34.508 12.494-10.262 5.922-24.246-8.768-19.194 33.835-23.371 13.488Z"/><path fill="#5245ED" d="M280.906 213.449v-9.57l7.406-6.892 23.371-13.488-1.663 2.932-29.114 27.018Zm84.834-51.178-10.617-3.84 10.262-5.922.355.128v9.634Z"/><path fill="#033093" d="M280.906 203.878v-2.783l-.004-6.097 23.255-21.581 5.862 3.364-21.707 20.205-7.406 6.892Z"/><path fill="url(#c)" d="m365.741 151.534-35.003-20.079.141-.246 34.862 17.075v3.25Z"/><path fill="#073962" d="m365.742 152.638-.355-.128-34.508-12.494-1.859-1.067 1.859-3.276-1.91-1.096 1.77-3.12 35.003 20.079v1.102Z"/><path fill="#02132B" d="m310.019 176.781-5.863-3.364 2.892-2.684 2.971 1.704 18.998-33.489 1.859 1.067-20.857 36.766Z"/><path fill="#000D5A" d="M280.902 213.453v-9.57l.004-.004v9.57l-.004.004Z"/><path fill="#00136E" d="M280.902 203.883v-2.788l.004.002v2.783l-.004.003Z"/><path fill="#A8A2F6" d="m275.867 204.226-109.179-62.629 34.152-31.785 109.18 62.627-34.153 31.787ZM261.774 87.554l-40.079-14.51 109.181 62.627 40.078 14.51-109.18-62.627Z"/><path fill="#CBC7FA" d="m330.877 135.672-20.857 36.766-109.18-62.626 20.856-36.767 109.181 62.627Z"/><path fill="#A8A2F6" d="M94.181 101.453v4.408l-45.63 12.179v-4.41l45.63-12.177Z"/><path fill="#A8A2F6" d="M94.18 101.452v4.408l38.306 59.91v-4.41L94.18 101.452Z"/><path fill="#2516DF" d="M370.955 154.525v-4.343l-40.078-14.51-20.857 36.767-34.153 31.786v4.342l34.153-31.786 20.857-36.766 40.078 14.51Z"/><path fill="#A8A2F6" d="M275.867 208.567v-4.342l-109.179-62.629v4.344l109.179 62.627Z"/><path fill="#5245ED" d="M231.375 122.124V99.659l-6.163-3.561-1.282-12.058h7.445l22.905 12.753-.389 3.301-5.878 9.561-16.638 12.469Z"/><path fill="#2516DF" d="M238.887 96.227v12.74l-7.512 13.157V99.659l7.512-3.432Z"/><path fill="#A8A2F6" d="m231.377 122.124-14.893-8.605V91.055l14.893 8.604v22.465Z"/><path fill="#CBC7FA" d="m229.29 99.151-16.743-9.675 11.66-6.521 16.745 9.675-11.662 6.521Z"/><path fill="#fff" d="m229.29 98.407-16.743-9.676 11.66-6.522 16.745 9.675-11.662 6.523Z"/><path fill="#2516DF" d="m230.409 100.954 8.478-4.727 2.063-3.597-11.661 6.522 1.12 1.802Z"/><path fill="#A8A2F6" d="m212.547 89.477 1.12 1.801 16.744 9.676-1.121-1.802-16.743-9.675ZM229.289 99.151v-.745l11.661-6.523v.747l-11.661 6.521Z"/><path fill="#CBC7FA" d="M229.29 99.151v-.745l-16.743-9.676v.746l16.743 9.675Z"/><path fill="#A8A2F6" d="M217.809 113.145V95.32l12.247 7.067v17.824l-12.247-7.066Z"/><path fill="#fff" d="M219.242 97.812v14.505l9.377 5.403v-14.506l-9.377-5.402Z"/><path fill="#2516DF" d="M220.858 98.745v12.885l7.761 4.469v1.621l-9.377-5.402V97.812l1.616.933Z"/><path fill="#CBC7FA" d="m220.858 111.63-1.616.688 9.377 5.402v-1.621l-7.761-4.469Z"/><path fill="#0C59BE" d="M222.052 112.319h-2.81l1.616-.688V98.745l1.226.705-.032 12.869Z"/><path fill="#5245ED" d="m262.832 140.135-5.34-18.278-2.105-19.806h7.445l22.905 12.752-.389 3.302-5.879 9.561-16.637 12.469Z"/><path fill="#2516DF" d="M270.343 114.237v12.74l-7.511 13.158v-22.464l7.511-3.434Z"/><path fill="#A8A2F6" d="m262.835 140.135-14.894-8.606v-22.464l14.894 8.606v22.464Z"/><path fill="#CBC7FA" d="m260.749 117.165-16.745-9.675 11.661-6.522 16.744 9.676-11.66 6.521Z"/><path fill="#fff" d="m260.749 116.417-16.745-9.676 11.661-6.521 16.744 9.675-11.66 6.522Z"/><path fill="#2516DF" d="m261.869 118.966 8.478-4.729 2.063-3.594-11.66 6.521 1.119 1.802Z"/><path fill="#A8A2F6" d="m244.004 107.489 1.119 1.801 16.745 9.676-1.119-1.802-16.745-9.675ZM260.75 117.165v-.747l11.66-6.522v.748l-11.66 6.521Z"/><path fill="#CBC7FA" d="M260.749 117.165v-.747l-16.745-9.675v.747l16.745 9.675Z"/><path fill="#A8A2F6" d="M249.262 131.157v-17.825l12.248 7.067v17.824l-12.248-7.066Z"/><path fill="#fff" d="M250.699 115.824v14.505l9.377 5.403v-14.506l-9.377-5.402Z"/><path fill="#2516DF" d="M252.315 116.757v12.886l7.761 4.468v1.621l-9.377-5.402v-14.506l1.616.933Z"/><path fill="#CBC7FA" d="m252.315 129.643-1.616.687 9.377 5.402v-1.621l-7.761-4.468Z"/><path fill="#2516DF" d="M250.699 130.33h2.812l.031-12.869-1.227-.705v12.886l-1.616.688Z"/><path fill="#5245ED" d="m294.29 158.147-5.34-18.278-2.106-19.806h7.446l22.904 12.753-.389 3.301-5.88 9.561-16.635 12.469Z"/><path fill="#2516DF" d="M301.8 132.25v12.741l-7.511 13.156v-22.464l7.511-3.433Z"/><path fill="#A8A2F6" d="m294.292 158.147-14.894-8.605v-22.464l14.894 8.605v22.464Z"/><path fill="#CBC7FA" d="m292.205 135.176-16.744-9.675 11.661-6.522 16.744 9.676-11.661 6.521Z"/><path fill="#fff" d="m292.205 134.43-16.744-9.675 11.661-6.522 16.744 9.676-11.661 6.521Z"/><path fill="#2516DF" d="m293.323 136.978 8.478-4.727 2.063-3.595-11.661 6.52 1.12 1.802Z"/><path fill="#A8A2F6" d="m275.461 125.501 1.12 1.801 16.744 9.676-1.12-1.802-16.744-9.675Z"/><path fill="#A8A2F6" d="M292.203 135.176v-.747l11.661-6.52v.746l-11.661 6.521Z"/><path fill="#CBC7FA" d="M292.205 135.176v-.747l-16.744-9.675v.747l16.744 9.675Z"/><path fill="#A8A2F6" d="M280.719 149.169v-17.825l12.248 7.066v17.824l-12.248-7.065Z"/><path fill="#fff" d="M282.156 133.837v14.504l9.377 5.403v-14.506l-9.377-5.401Z"/><path fill="#2516DF" d="M283.772 134.768v12.887l7.76 4.468v1.621l-9.376-5.402v-14.506l1.616.932Z"/><path fill="#CBC7FA" d="m283.772 147.655-1.616.687 9.376 5.402v-1.621l-7.76-4.468Z"/><path fill="#2516DF" d="M282.156 148.342h2.812l.03-12.869-1.226-.705v12.887l-1.616.687Z"/><defs><linearGradient id="a" x1="211.805" x2="211.805" y1="80.094" y2="189.715" gradientUnits="userSpaceOnUse"><stop stop-color="#F7F7FD"/><stop offset="1" stop-color="#E8E6F9"/></linearGradient><linearGradient id="b" x1="211.805" x2="211.805" y1="80.095" y2="189.717" gradientUnits="userSpaceOnUse"><stop stop-color="#FFFCF7"/><stop offset="1" stop-color="#E8E6F9"/></linearGradient><linearGradient id="c" x1="211.807" x2="211.807" y1="80.094" y2="189.715" gradientUnits="userSpaceOnUse"><stop stop-color="#0850A1"/><stop offset="1" stop-color="#074CA1"/></linearGradient></defs></svg>