<svg xmlns="http://www.w3.org/2000/svg" width="64" height="64" fill="none"><circle cx="32" cy="32" r="31.5" fill="#fff" stroke="#E0DEF7"/><circle cx="32" cy="32" r="28" fill="#E0DEF7"/><rect width="24" height="24" x="40" y="40" fill="#7065F0" rx="12"/><path fill="#fff" d="M51.999 45.334A6.67 6.67 0 0 0 45.332 52a6.67 6.67 0 0 0 6.667 6.667A6.67 6.67 0 0 0 58.665 52 6.67 6.67 0 0 0 52 45.334Zm-2.18 3.773c.54 0 .986.44.986.986 0 .54-.44.987-.986.987a.989.989 0 0 1-.987-.986c0-.547.44-.987.987-.987Zm.08 5.426c-.1.1-.227.147-.354.147a.495.495 0 0 1-.353-.147.503.503 0 0 1 0-.706l4.367-4.367a.503.503 0 0 1 .706 0 .503.503 0 0 1 0 .707L49.9 54.533Zm4.28.36a.989.989 0 0 1-.987-.986c0-.54.44-.987.987-.987.54 0 .986.44.986.987 0 .547-.44.987-.986.987Z"/><g clip-path="url(#a)"><g filter="url(#b)"><path fill="#fff" d="M22.668 44V22.667A2.667 2.667 0 0 1 25.335 20h13.333a2.667 2.667 0 0 1 2.667 2.667V44l-4-2.667L34.668 44l-2.667-2.667L29.335 44l-2.667-2.667-4 2.667Z"/><path stroke="#fff" stroke-linecap="round" stroke-linejoin="round" stroke-width="2" d="M22.668 44V22.667A2.667 2.667 0 0 1 25.335 20h13.333a2.667 2.667 0 0 1 2.667 2.667V44l-4-2.667L34.668 44l-2.667-2.667L29.335 44l-2.667-2.667-4 2.667Z"/></g><g filter="url(#c)"><path stroke="#7065F0" stroke-linecap="round" stroke-linejoin="round" stroke-width="2" d="M34.665 26.667h-3.333a2 2 0 0 0 0 4h1.333a2 2 0 0 1 0 4h-3.333m2.667 0v2m0-12v2" shape-rendering="crispEdges"/></g></g><defs><filter id="b" width="28.668" height="34" x="19.668" y="17" color-interpolation-filters="sRGB" filterUnits="userSpaceOnUse"><feFlood flood-opacity="0" result="BackgroundImageFix"/><feColorMatrix in="SourceAlpha" result="hardAlpha" values="0 0 0 0 0 0 0 0 0 0 0 0 0 0 0 0 0 0 127 0"/><feOffset dx="2" dy="2"/><feGaussianBlur stdDeviation="2"/><feComposite in2="hardAlpha" operator="out"/><feColorMatrix values="0 0 0 0 0.439216 0 0 0 0 0.396078 0 0 0 0 0.941176 0 0 0 0.1 0"/><feBlend in2="BackgroundImageFix" result="effect1_dropShadow_334_889"/><feBlend in="SourceGraphic" in2="effect1_dropShadow_334_889" result="shape"/></filter><filter id="c" width="15.332" height="22" x="26.332" y="21.667" color-interpolation-filters="sRGB" filterUnits="userSpaceOnUse"><feFlood flood-opacity="0" result="BackgroundImageFix"/><feColorMatrix in="SourceAlpha" result="hardAlpha" values="0 0 0 0 0 0 0 0 0 0 0 0 0 0 0 0 0 0 127 0"/><feOffset dx="2" dy="2"/><feGaussianBlur stdDeviation="2"/><feComposite in2="hardAlpha" operator="out"/><feColorMatrix values="0 0 0 0 0.439216 0 0 0 0 0.396078 0 0 0 0 0.941176 0 0 0 0.1 0"/><feBlend in2="BackgroundImageFix" result="effect1_dropShadow_334_889"/><feBlend in="SourceGraphic" in2="effect1_dropShadow_334_889" result="shape"/></filter><clipPath id="a"><path fill="#fff" d="M16 16h32v32H16z"/></clipPath></defs></svg>