<svg xmlns="http://www.w3.org/2000/svg" width="20" height="20" fill="none"><path stroke="#7065F0" stroke-linecap="round" stroke-linejoin="round" stroke-miterlimit="10" stroke-width="2" d="M16.491 12.442A6.312 6.312 0 0 1 10.158 14l-3.925 3.917c-.283.291-.842.466-1.242.408l-1.816-.25c-.6-.083-1.159-.65-1.25-1.25l-.25-1.817c-.059-.4.133-.958.408-1.241L6 9.85c-.667-2.167-.15-4.625 1.566-6.333 2.459-2.459 6.45-2.459 8.917 0a6.315 6.315 0 0 1 .008 8.925ZM5.742 14.575l1.917 1.917"/><path stroke="#7065F0" stroke-linecap="round" stroke-linejoin="round" stroke-width="2" d="M12.082 9.167a1.25 1.25 0 1 0 0-2.5 1.25 1.25 0 0 0 0 2.5Z"/></svg>