<svg xmlns="http://www.w3.org/2000/svg" width="64" height="64" fill="none"><circle cx="32" cy="32" r="31.5" fill="#fff" stroke="#E0DEF7"/><circle cx="32" cy="32" r="28" fill="#E0DEF7"/><g clip-path="url(#a)"><path fill="#fff" fill-rule="evenodd" d="M18.668 32h2.963v10.37a2.963 2.963 0 0 0 2.963 2.963h14.815a2.963 2.963 0 0 0 2.963-2.962V32h2.963L32 18.666 18.668 32Z" clip-rule="evenodd"/><path fill="#fff" d="M21.63 32h1a1 1 0 0 0-1-1v1Zm-2.962 0-.707-.707A1 1 0 0 0 18.668 33v-1Zm3.83 12.466.708-.708-.707.708Zm19.006 0-.707-.708.707.708ZM42.372 32v-1a1 1 0 0 0-1 1h1Zm2.963 0v1a1 1 0 0 0 .707-1.707l-.707.707ZM32 18.667l.707-.707a1 1 0 0 0-1.414 0l.707.707ZM21.631 31h-2.963v2h2.963v-2Zm-1 1v10.37h2V32h-2Zm0 10.37c0 1.052.417 2.06 1.16 2.803l1.415-1.415a1.963 1.963 0 0 1-.575-1.388h-2Zm1.16 2.803a3.963 3.963 0 0 0 2.803 1.16v-2c-.52 0-1.02-.206-1.388-.575l-1.414 1.415Zm2.803 1.16h14.815v-2H24.594v2Zm14.815 0c1.05 0 2.059-.417 2.802-1.16l-1.414-1.415a1.963 1.963 0 0 1-1.388.575v2Zm2.802-1.16a3.963 3.963 0 0 0 1.16-2.803h-2c0 .521-.206 1.02-.574 1.389l1.414 1.414Zm1.16-2.803V32h-2v10.37h2Zm-1-11.37v2-2Zm2.964 0h-2.963v2h2.963v-2Zm-14.04-11.626 13.332 13.333 1.415-1.414L32.708 17.96l-1.414 1.414Zm-11.92 13.333 13.333-13.333-1.414-1.414-13.333 13.333 1.414 1.414Z"/><path stroke="#7065F0" stroke-linecap="round" stroke-linejoin="round" stroke-width="2" d="m28 34 2.667 2.667L36 31.333"/></g><path fill="#7065F0" d="M40 40h24v12c0 6.627-5.373 12-12 12s-12-5.373-12-12V40Z"/><path fill="#fff" d="m56.36 46.78-3.666-1.373c-.38-.14-1-.14-1.38 0l-3.667 1.373c-.706.267-1.28 1.093-1.28 1.847v5.4c0 .54.354 1.253.787 1.573l3.666 2.74c.647.487 1.707.487 2.354 0l3.666-2.74c.434-.327.787-1.033.787-1.573v-5.4c.007-.754-.567-1.58-1.267-1.847Zm-3.86 5.8v1.753c0 .274-.226.5-.5.5a.504.504 0 0 1-.5-.5V52.58A1.665 1.665 0 0 1 50.335 51a1.667 1.667 0 0 1 3.333 0c0 .747-.493 1.367-1.166 1.58Z"/><defs><clipPath id="a"><path fill="#fff" d="M16 16h32v32H16z"/></clipPath></defs></svg>