<svg xmlns="http://www.w3.org/2000/svg" width="64" height="64" fill="none"><circle cx="32" cy="32" r="31.5" fill="#fff" stroke="#E0DEF7"/><circle cx="32" cy="32" r="28" fill="#E0DEF7"/><path fill="#fff" d="M22.668 26.667c-2.213 0-4 1.786-4 4v10.666c0 2.214 1.787 4 4 4h2c1.467 0 2.667-1.2 2.667-2.666V29.333c0-1.466-1.2-2.666-2.667-2.666h-2Zm1.333 12c0 .546-.453 1-1 1-.546 0-1-.454-1-1v-5.334c0-.546.454-1 1-1 .547 0 1 .454 1 1v5.334ZM41.332 18.667h-8c-2.213 0-4 1.786-4 4v18.666c0 2.214 1.787 4 4 4h.667a.66.66 0 0 0 .666-.666V40c0-.733.6-1.333 1.334-1.333h2.666c.734 0 1.334.6 1.334 1.333v4.667a.66.66 0 0 0 .666.666h.667c2.213 0 4-1.786 4-4V22.667c0-2.214-1.787-4-4-4Zm-5.667 14.666c0 .547-.453 1-1 1-.546 0-1-.453-1-1v-6.666c0-.547.454-1 1-1 .547 0 1 .453 1 1v6.666Zm5.334 0c0 .547-.454 1-1 1-.547 0-1-.453-1-1v-6.666c0-.547.453-1 1-1 .546 0 1 .453 1 1v6.666Z"/><path fill="#7065F0" d="M40 48a8 8 0 0 1 8-8h8a8 8 0 0 1 8 8v8a8 8 0 0 1-8 8h-8a8 8 0 0 1-8-8v-8Z"/><path stroke="#fff" stroke-linecap="round" stroke-linejoin="round" stroke-width="2" d="M51.665 58a6.333 6.333 0 1 0 0-12.667 6.333 6.333 0 0 0 0 12.667ZM58.665 58.667l-1.333-1.334"/></svg>