<svg xmlns="http://www.w3.org/2000/svg" width="118" height="32" fill="none"><path fill="#100A55" d="M37.44 24V9.1h9.9v2.4h-7.18v3.82h6.78v2.4h-6.78v3.88h7.18V24h-9.9Zm15.815.24c-1.16 0-2.174-.273-3.04-.82a4.278 4.278 0 0 1-1.76-2.26l1.96-.94c.28.613.666 1.093 1.16 1.44a2.91 2.91 0 0 0 1.68.52c.48 0 .86-.107 1.14-.32.28-.213.42-.493.42-.84a.748.748 0 0 0-.18-.52 1.157 1.157 0 0 0-.46-.36 2.884 2.884 0 0 0-.62-.26l-1.78-.5c-.92-.267-1.62-.673-2.1-1.22-.467-.547-.7-1.193-.7-1.94 0-.667.166-1.247.5-1.74.346-.507.82-.9 1.42-1.18.613-.28 1.313-.42 2.1-.42 1.026 0 1.933.247 2.72.74a4.058 4.058 0 0 1 1.68 2.08l-2 .94a2.41 2.41 0 0 0-.94-1.18 2.609 2.609 0 0 0-1.48-.44c-.44 0-.787.1-1.04.3-.254.2-.38.46-.38.78 0 .2.053.373.16.52.106.147.253.267.44.36.2.093.426.18.68.26l1.74.52c.893.267 1.58.667 2.06 1.2.493.533.74 1.187.74 1.96 0 .653-.174 1.233-.52 1.74-.347.493-.827.88-1.44 1.16-.614.28-1.334.42-2.16.42Zm11.093-.12c-1.227 0-2.18-.333-2.86-1-.667-.68-1-1.633-1-2.86v-4.8h-1.88v-2.34h.2c.533 0 .947-.14 1.24-.42.293-.28.44-.687.44-1.22v-.84h2.62v2.48h2.5v2.34h-2.5v4.66c0 .36.06.667.18.92.133.253.333.447.6.58.28.133.633.2 1.06.2.093 0 .2-.007.32-.02l.38-.04V24c-.187.027-.4.053-.64.08-.24.027-.46.04-.66.04Zm6.563.12c-.76 0-1.42-.127-1.98-.38s-.994-.613-1.3-1.08c-.307-.48-.46-1.033-.46-1.66 0-.6.133-1.133.4-1.6.266-.48.68-.88 1.24-1.2.56-.32 1.266-.547 2.12-.68l3.56-.58v2l-3.06.52c-.52.093-.907.26-1.16.5-.254.24-.38.553-.38.94 0 .373.14.673.42.9.293.213.653.32 1.08.32.546 0 1.026-.113 1.44-.34.426-.24.753-.567.98-.98.24-.413.36-.867.36-1.36v-2.8c0-.467-.187-.853-.56-1.16-.36-.32-.84-.48-1.44-.48-.56 0-1.06.153-1.5.46a2.57 2.57 0 0 0-.94 1.18l-2.14-1.04a3.742 3.742 0 0 1 1-1.48 5.113 5.113 0 0 1 1.64-1 5.657 5.657 0 0 1 2.04-.36c.893 0 1.68.167 2.36.5.68.32 1.206.773 1.58 1.36.386.573.58 1.247.58 2.02V24h-2.48v-1.86l.56-.04c-.28.467-.614.86-1 1.18a4.51 4.51 0 0 1-1.32.72c-.494.16-1.04.24-1.64.24Zm13.066-.12c-1.227 0-2.18-.333-2.86-1-.667-.68-1-1.633-1-2.86v-4.8h-1.88v-2.34h.2c.533 0 .947-.14 1.24-.42.293-.28.44-.687.44-1.22v-.84h2.62v2.48h2.5v2.34h-2.5v4.66c0 .36.06.667.18.92.133.253.333.447.6.58.28.133.633.2 1.06.2.093 0 .2-.007.32-.02l.38-.04V24c-.187.027-.4.053-.64.08-.24.027-.46.04-.66.04Zm8.364.12c-1.12 0-2.1-.253-2.94-.76a5.294 5.294 0 0 1-1.96-2.06c-.467-.867-.7-1.827-.7-2.88 0-1.093.233-2.06.7-2.9a5.43 5.43 0 0 1 1.94-2.02c.827-.493 1.747-.74 2.76-.74.853 0 1.6.14 2.24.42.653.28 1.207.667 1.66 1.16.453.493.8 1.06 1.04 1.7.24.627.36 1.307.36 2.04 0 .187-.013.38-.04.58-.013.2-.047.373-.1.52h-8.4v-2h6.92l-1.24.94c.12-.613.087-1.16-.1-1.64a2.272 2.272 0 0 0-.88-1.14c-.4-.28-.887-.42-1.46-.42-.547 0-1.033.14-1.46.42-.427.267-.753.667-.98 1.2-.213.52-.293 1.153-.24 1.9-.053.667.033 1.26.26 1.78.24.507.587.9 1.04 1.18.467.28 1 .42 1.6.42.6 0 1.107-.127 1.52-.38.427-.253.76-.593 1-1.02L97 21.58c-.213.52-.547.98-1 1.38-.453.4-.993.713-1.62.94-.613.227-1.293.34-2.04.34Zm7.086-.24V13.12h2.46v2.42l-.2-.36c.253-.813.647-1.38 1.18-1.7.547-.32 1.2-.48 1.96-.48h.64v2.32h-.94c-.747 0-1.347.233-1.8.7-.453.453-.68 1.093-.68 1.92V24h-2.62Zm8.801 4.42c-.294 0-.58-.027-.86-.08a2.65 2.65 0 0 1-.76-.22v-2.2c.173.04.38.08.62.12.253.04.486.06.7.06.6 0 1.033-.14 1.3-.42.28-.28.526-.647.74-1.1l.72-1.68-.04 2.2-4.74-11.98h2.82l3.32 8.84h-1l3.3-8.84h2.84l-4.74 11.98c-.28.707-.62 1.307-1.02 1.8a4.02 4.02 0 0 1-1.4 1.12c-.52.267-1.12.4-1.8.4Z"/><g stroke-linecap="round" stroke-linejoin="round" stroke-width="3" clip-path="url(#a)"><path fill="#7065F0" stroke="#7065F0" d="m25.335 11.613-7.11-5.53a3.554 3.554 0 0 0-4.366 0l-7.112 5.53a3.553 3.553 0 0 0-1.372 2.807v9.6a2.667 2.667 0 0 0 2.667 2.666h16a2.667 2.667 0 0 0 2.666-2.666v-9.6a3.554 3.554 0 0 0-1.373-2.807Z"/><path stroke="#F9FAFB" d="M21.335 20c-2.947 1.777-7.723 1.777-10.667 0"/></g><defs><clipPath id="a"><path fill="#fff" d="M0 0h32v32H0z"/></clipPath></defs></svg>