<svg xmlns="http://www.w3.org/2000/svg" width="20" height="20" fill="none"><path fill="#FFB154" d="M14.934 11.934a.917.917 0 0 0-.266.808l.74 4.1a.9.9 0 0 1-.374.9.917.917 0 0 1-.975.066l-3.691-1.925a.944.944 0 0 0-.417-.109h-.226a.678.678 0 0 0-.225.075L5.81 17.783a.973.973 0 0 1-.592.092.926.926 0 0 1-.742-1.059l.742-4.1a.932.932 0 0 0-.266-.816L1.942 8.983a.9.9 0 0 1-.224-.941.936.936 0 0 1 .74-.625L6.6 6.816a.927.927 0 0 0 .734-.507l1.825-3.742c.043-.084.099-.16.166-.225l.075-.058a.56.56 0 0 1 .135-.109l.09-.033.142-.058h.35c.314.032.59.22.734.5l1.85 3.725a.926.926 0 0 0 .691.507l4.142.6c.35.05.642.292.758.626.11.334.015.7-.242.941l-3.116 2.95Z"/></svg>