<svg xmlns="http://www.w3.org/2000/svg" width="84" height="20" fill="none"><g clip-path="url(#a)"><path fill="#fff" d="M21.822 7.087h8.384v1.535h-3.3v8.649h-1.81V8.62h-3.287l.013-1.534Zm8.025 2.811h1.547v1.426h.028c.055-.204.152-.394.29-.584.138-.19.304-.367.511-.516.193-.163.414-.285.663-.38.235-.095.483-.15.732-.15.194 0 .332.014.4.014.07.013.153.027.222.027v1.562c-.11-.028-.235-.041-.36-.055-.124-.013-.234-.027-.359-.027-.276 0-.538.054-.787.163a1.994 1.994 0 0 0-.65.475 2.56 2.56 0 0 0-.441.788c-.11.312-.166.679-.166 1.086v3.503H29.82l.027-7.332Zm11.99 7.373h-1.63v-1.032h-.028c-.207.38-.511.665-.912.896-.4.23-.815.34-1.229.34-.98 0-1.699-.232-2.14-.72-.443-.476-.664-1.209-.664-2.173V9.898h1.658v4.521c0 .652.124 1.114.386 1.372.249.271.608.407 1.064.407.345 0 .635-.054.87-.163.235-.108.428-.244.566-.42.152-.177.249-.395.318-.639.07-.244.097-.516.097-.801V9.898h1.657v7.373h-.014Zm2.817-2.363c.055.475.235.801.553 1.005.317.19.704.285 1.146.285.152 0 .331-.014.525-.04.193-.028.387-.069.552-.137a.97.97 0 0 0 .429-.298.687.687 0 0 0 .151-.503.725.725 0 0 0-.234-.516 1.964 1.964 0 0 0-.553-.325 4.862 4.862 0 0 0-.773-.204c-.29-.054-.58-.122-.884-.19a9.707 9.707 0 0 1-.898-.244 2.59 2.59 0 0 1-.773-.394 1.701 1.701 0 0 1-.54-.625c-.137-.258-.206-.556-.206-.937 0-.407.096-.733.303-1.005.194-.271.456-.488.76-.651.304-.163.65-.285 1.022-.353a5.95 5.95 0 0 1 1.064-.095c.386 0 .76.04 1.105.122.345.081.677.204.953.394.29.176.525.42.704.706.194.285.304.638.36 1.045h-1.727c-.083-.393-.263-.652-.539-.787a2.257 2.257 0 0 0-.98-.204c-.111 0-.263.014-.415.027a2.48 2.48 0 0 0-.456.109 1.083 1.083 0 0 0-.359.23.538.538 0 0 0-.152.394c0 .204.07.353.207.476.139.122.318.217.553.312.22.081.483.15.773.204.29.054.594.122.898.19.304.068.594.149.884.244.29.095.553.217.774.394.22.163.414.366.552.61.138.245.207.557.207.91 0 .435-.096.802-.303 1.114-.208.299-.47.557-.788.747-.318.19-.69.326-1.077.42a5.88 5.88 0 0 1-1.174.136c-.47 0-.912-.054-1.312-.163-.4-.108-.76-.271-1.05-.475a2.288 2.288 0 0 1-.69-.8c-.166-.313-.263-.693-.277-1.141h1.671v.013h.014Zm5.456-5.01h1.257V7.671h1.657v2.213h1.492v1.209h-1.492v3.937c0 .177.014.313.028.448a.93.93 0 0 0 .097.313c.055.081.138.15.234.19.111.04.25.068.442.068.111 0 .235 0 .346-.014.11-.014.235-.027.345-.054v1.263c-.18.027-.359.04-.539.054-.18.027-.345.027-.538.027-.442 0-.788-.04-1.05-.122a1.515 1.515 0 0 1-.622-.353 1.253 1.253 0 0 1-.303-.584 4.552 4.552 0 0 1-.097-.815v-4.345H50.11V9.871v.027Zm5.566 0h1.561v1.005h.028c.235-.435.552-.734.967-.924.414-.19.856-.285 1.353-.285.594 0 1.105.095 1.547.313.442.203.801.475 1.091.841.29.353.511.774.65 1.25.138.475.22.99.22 1.52 0 .503-.069.978-.193 1.44a3.963 3.963 0 0 1-.594 1.235 2.924 2.924 0 0 1-1.008.855c-.414.218-.884.326-1.437.326a4.29 4.29 0 0 1-.718-.067 3.097 3.097 0 0 1-.69-.204 2.481 2.481 0 0 1-.608-.367 2.08 2.08 0 0 1-.47-.516h-.027V20H55.69V9.898h-.014Zm5.788 3.693c0-.326-.042-.652-.138-.964a2.44 2.44 0 0 0-.401-.828c-.18-.244-.4-.435-.65-.584a1.792 1.792 0 0 0-.897-.217c-.69 0-1.215.23-1.575.706-.345.475-.524 1.113-.524 1.9 0 .38.041.72.138 1.033.096.312.22.583.414.814.18.231.4.408.663.543.263.136.553.204.898.204.387 0 .69-.081.953-.23.262-.15.47-.354.65-.585a2.37 2.37 0 0 0 .358-.828c.07-.326.11-.638.11-.964Zm2.914-6.504h1.658v1.535h-1.658V7.087Zm0 2.811h1.658v7.373h-1.658V9.898Zm3.135-2.81h1.658V17.27h-1.658V7.087Zm6.713 10.386c-.594 0-1.132-.095-1.602-.298a3.639 3.639 0 0 1-1.188-.801 3.476 3.476 0 0 1-.732-1.236 4.754 4.754 0 0 1-.262-1.561c0-.557.083-1.073.262-1.548.166-.475.415-.883.732-1.236.318-.34.718-.61 1.188-.801a4.256 4.256 0 0 1 1.602-.299c.594 0 1.133.095 1.603.299.47.19.856.462 1.187.801.318.34.567.76.732 1.236.166.475.263.99.263 1.548 0 .57-.083 1.086-.263 1.561a3.83 3.83 0 0 1-.732 1.236c-.317.339-.718.61-1.188.8-.47.19-.994.3-1.602.3Zm0-1.29c.36 0 .69-.081.953-.23.277-.15.484-.353.663-.598.18-.244.304-.53.387-.828a3.664 3.664 0 0 0 0-1.887 2.413 2.413 0 0 0-.387-.829c-.18-.244-.4-.434-.663-.583a1.974 1.974 0 0 0-.953-.231c-.359 0-.69.081-.953.23-.276.15-.483.354-.663.584-.18.245-.304.516-.386.829a3.638 3.638 0 0 0 0 1.887c.082.312.207.584.386.828.18.245.4.448.663.598.276.163.594.23.953.23Zm4.282-6.286h1.257V7.671h1.657v2.213h1.492v1.209h-1.492v3.937c0 .177.014.313.028.448.014.123.055.231.097.313.055.081.138.15.235.19.11.04.248.068.442.068.11 0 .234 0 .345-.014.11-.014.235-.027.345-.054v1.263c-.18.027-.359.04-.538.054-.18.027-.346.027-.54.027-.441 0-.787-.04-1.049-.122a1.516 1.516 0 0 1-.622-.353 1.254 1.254 0 0 1-.303-.584 4.552 4.552 0 0 1-.097-.815v-4.345h-1.257V9.871v.027Z"/><path fill="#00B67A" d="M19.887 7.088h-7.583L9.97 0 7.622 7.088.039 7.074l6.133 4.386-2.348 7.087 6.132-4.385 6.133 4.385-2.334-7.087 6.132-4.372Z"/><path fill="#005128" d="m14.282 13.062-.525-1.602-3.784 2.701 4.31-1.1Z"/></g><defs><clipPath id="a"><path fill="#fff" d="M0 0h83.75v20H0z"/></clipPath></defs></svg>